<?xml version="1.0" standalone="no"?>
<!DOCTYPE svg PUBLIC "-//W3C//DTD SVG 20010904//EN"
 "http://www.w3.org/TR/2001/REC-SVG-20010904/DTD/svg10.dtd">
<svg version="1.0" xmlns="http://www.w3.org/2000/svg"
 width="5158.000000pt" height="4265.000000pt" viewBox="0 0 5158.000000 4265.000000"
 preserveAspectRatio="xMidYMid meet">

<g transform="translate(0.000000,4265.000000) scale(0.100000,-0.100000)"
fill="#000000" stroke="none">
<path d="M24450 42630 c0 -14 -9 -20 -32 -24 -36 -6 -364 -30 -628 -46 -91 -5
-239 -21 -330 -34 -91 -13 -226 -29 -300 -36 -176 -14 -267 -26 -425 -55 -71
-13 -182 -28 -245 -35 -63 -6 -158 -20 -210 -31 -144 -30 -185 -37 -305 -53
-61 -8 -158 -26 -216 -40 -57 -14 -153 -32 -213 -41 -60 -9 -143 -27 -185 -40
-42 -14 -137 -33 -211 -44 -74 -11 -162 -29 -195 -41 -33 -11 -112 -30 -175
-41 -63 -12 -155 -33 -205 -49 -49 -15 -119 -33 -155 -40 -35 -7 -94 -23 -129
-36 -35 -13 -112 -33 -172 -43 -59 -11 -129 -29 -155 -41 -27 -11 -88 -30
-136 -40 -47 -11 -110 -29 -139 -40 -28 -12 -89 -30 -135 -40 -46 -11 -112
-31 -146 -45 -35 -14 -102 -34 -150 -45 -47 -10 -105 -28 -127 -40 -23 -11
-80 -30 -128 -41 -48 -11 -109 -32 -135 -45 -26 -13 -78 -31 -114 -40 -37 -8
-88 -26 -113 -38 -25 -13 -82 -33 -126 -45 -44 -12 -93 -31 -110 -41 -16 -10
-62 -27 -100 -38 -39 -11 -94 -31 -122 -45 -28 -15 -81 -34 -119 -43 -37 -10
-96 -32 -131 -51 -36 -18 -71 -33 -80 -33 -9 0 -47 -16 -85 -35 -38 -20 -92
-40 -121 -46 -29 -6 -76 -24 -105 -40 -30 -17 -80 -38 -112 -48 -32 -10 -71
-28 -87 -39 -16 -11 -55 -28 -88 -37 -33 -10 -82 -30 -110 -45 -27 -15 -68
-33 -90 -40 -22 -7 -67 -27 -100 -45 -33 -18 -78 -38 -100 -45 -22 -7 -58 -23
-80 -36 -22 -12 -67 -33 -100 -45 -33 -12 -67 -28 -77 -36 -9 -8 -48 -28 -88
-44 -39 -16 -84 -38 -99 -49 -16 -10 -50 -27 -77 -36 -27 -9 -61 -25 -77 -36
-15 -11 -54 -30 -87 -43 -33 -13 -72 -32 -87 -43 -16 -11 -57 -33 -93 -50 -36
-17 -81 -40 -100 -51 -19 -12 -53 -29 -75 -40 -22 -11 -80 -41 -130 -67 -49
-26 -117 -61 -150 -78 -34 -17 -73 -40 -87 -52 -15 -11 -47 -29 -73 -38 -25
-10 -69 -33 -97 -52 -27 -19 -55 -34 -61 -34 -6 0 -36 -16 -66 -36 -104 -67
-166 -103 -211 -124 -25 -12 -68 -37 -97 -56 -28 -19 -55 -34 -59 -34 -7 0
-37 -18 -177 -109 -29 -18 -70 -42 -92 -53 -22 -11 -49 -28 -60 -38 -11 -10
-43 -30 -71 -44 -27 -14 -67 -39 -88 -56 -22 -16 -42 -30 -46 -30 -4 0 -25
-14 -46 -31 -22 -17 -64 -44 -94 -60 -30 -16 -66 -37 -80 -48 -22 -16 -122
-83 -284 -191 -29 -19 -85 -57 -125 -85 -40 -27 -96 -64 -123 -82 -28 -18 -60
-41 -72 -51 -12 -10 -39 -30 -61 -44 -22 -15 -71 -49 -110 -77 -131 -95 -188
-136 -230 -166 -40 -28 -142 -106 -243 -185 -24 -19 -64 -48 -87 -65 -41 -29
-100 -75 -197 -152 -60 -49 -150 -119 -210 -165 -52 -40 -111 -89 -227 -188
-42 -36 -125 -106 -186 -155 -125 -102 -519 -451 -705 -624 -605 -563 -1263
-1247 -1762 -1831 -202 -236 -245 -288 -340 -410 -35 -44 -80 -100 -188 -230
-47 -57 -105 -131 -130 -165 -25 -34 -65 -88 -90 -120 -43 -55 -66 -86 -160
-215 -22 -30 -62 -83 -88 -117 -91 -120 -230 -315 -345 -485 -18 -26 -71 -105
-119 -175 -157 -230 -228 -339 -412 -635 -64 -102 -129 -205 -162 -256 -17
-26 -41 -67 -54 -91 -12 -24 -35 -62 -51 -84 -16 -22 -29 -45 -29 -52 0 -7
-18 -39 -40 -71 -22 -33 -40 -64 -40 -70 0 -6 -20 -42 -45 -80 -25 -37 -45
-73 -45 -80 0 -6 -14 -30 -31 -54 -18 -24 -41 -64 -52 -89 -11 -25 -30 -59
-42 -76 -13 -16 -34 -52 -48 -80 -14 -27 -47 -92 -73 -143 -27 -51 -82 -159
-123 -240 -41 -81 -85 -163 -97 -182 -13 -19 -31 -55 -40 -80 -10 -25 -27 -58
-39 -75 -12 -16 -31 -52 -41 -80 -10 -27 -28 -66 -41 -85 -12 -19 -31 -61 -42
-93 -11 -32 -29 -71 -41 -87 -11 -16 -27 -48 -36 -72 -14 -42 -65 -150 -145
-311 -21 -43 -39 -86 -39 -94 0 -9 -13 -37 -29 -63 -16 -27 -36 -70 -44 -97
-8 -27 -28 -76 -45 -109 -16 -33 -35 -80 -42 -104 -6 -25 -24 -68 -40 -96 -15
-28 -35 -73 -43 -101 -8 -27 -29 -77 -45 -109 -17 -32 -36 -79 -42 -104 -7
-24 -25 -70 -41 -101 -15 -31 -33 -79 -40 -105 -6 -27 -26 -80 -44 -119 -18
-38 -38 -95 -44 -125 -7 -30 -23 -73 -36 -96 -13 -22 -33 -74 -44 -114 -12
-40 -32 -95 -45 -121 -14 -26 -32 -77 -40 -113 -9 -36 -28 -94 -42 -128 -15
-35 -35 -97 -45 -138 -10 -41 -29 -100 -42 -130 -14 -30 -30 -82 -37 -115 -6
-33 -25 -90 -41 -127 -16 -37 -36 -102 -45 -145 -9 -43 -27 -103 -39 -134 -13
-30 -31 -93 -41 -140 -9 -46 -29 -118 -44 -159 -15 -41 -35 -112 -44 -157 -10
-46 -30 -117 -46 -160 -15 -43 -33 -114 -40 -158 -7 -44 -25 -120 -40 -170
-16 -49 -36 -134 -45 -188 -9 -54 -28 -131 -41 -170 -14 -40 -32 -115 -40
-167 -8 -52 -28 -147 -44 -210 -16 -63 -34 -158 -40 -210 -7 -52 -25 -144 -40
-205 -16 -60 -36 -164 -45 -230 -9 -66 -27 -174 -40 -241 -14 -67 -32 -186
-40 -265 -9 -79 -24 -187 -35 -239 -33 -162 -39 -209 -55 -408 -8 -105 -26
-265 -39 -355 -30 -198 -34 -237 -46 -497 -10 -209 -26 -419 -36 -477 -3 -24
-10 -33 -24 -33 -20 0 -20 -16 -20 -1185 0 -1166 0 -1185 19 -1185 16 0 21 -9
25 -43 5 -42 26 -341 47 -657 5 -91 21 -250 35 -355 13 -104 31 -262 40 -350
8 -88 28 -236 44 -330 16 -93 34 -224 40 -290 6 -66 25 -178 41 -250 16 -71
36 -186 45 -255 8 -69 28 -181 44 -250 16 -69 32 -147 35 -175 11 -85 26 -157
50 -240 13 -44 31 -129 40 -190 9 -60 28 -144 40 -185 13 -41 31 -118 40 -170
9 -52 29 -135 45 -185 16 -49 36 -127 45 -173 9 -46 27 -115 41 -154 13 -39
31 -110 40 -157 9 -47 28 -119 44 -160 15 -42 35 -111 44 -154 10 -43 28 -102
40 -130 13 -29 31 -88 41 -132 9 -44 28 -106 41 -137 13 -32 33 -95 44 -140
10 -46 30 -110 44 -143 13 -33 32 -89 41 -124 9 -36 27 -86 40 -112 13 -26 32
-78 41 -115 9 -38 28 -91 41 -117 13 -27 33 -82 43 -122 10 -40 28 -91 39
-113 11 -22 29 -71 39 -109 11 -38 33 -96 50 -128 16 -33 33 -76 37 -95 4 -19
22 -65 41 -102 18 -37 39 -89 45 -115 6 -26 24 -70 39 -98 15 -27 35 -77 44
-109 10 -33 30 -85 46 -116 15 -30 33 -76 40 -100 6 -25 24 -65 40 -90 15 -25
33 -63 40 -85 7 -22 27 -68 46 -102 19 -34 34 -68 34 -76 0 -9 16 -46 36 -84
20 -37 45 -92 55 -122 11 -30 29 -71 40 -90 12 -20 30 -60 40 -90 10 -29 32
-74 47 -100 16 -25 34 -62 41 -82 6 -20 24 -56 39 -80 16 -24 36 -64 46 -89
10 -25 27 -61 39 -80 12 -19 34 -63 48 -97 15 -34 35 -74 46 -90 11 -15 26
-44 33 -63 17 -43 101 -205 165 -320 27 -47 63 -113 81 -148 19 -34 45 -79 59
-100 14 -20 25 -41 25 -47 0 -6 14 -33 32 -61 17 -27 47 -78 65 -114 97 -185
173 -297 255 -375 87 -84 129 -114 233 -169 72 -38 114 -52 209 -72 151 -31
255 -31 411 0 100 20 135 32 210 73 234 127 386 307 463 547 32 99 36 125 40
249 4 136 4 139 -34 260 -33 106 -108 272 -157 348 -16 24 -53 93 -121 223
-20 38 -42 77 -50 85 -8 9 -25 41 -39 71 -14 30 -37 70 -51 89 -14 19 -26 40
-26 46 0 6 -16 38 -36 71 -20 32 -45 81 -55 108 -11 27 -28 61 -38 75 -11 14
-31 55 -45 90 -14 36 -33 72 -41 81 -8 9 -26 44 -39 78 -14 34 -33 74 -44 89
-11 16 -32 57 -46 92 -14 36 -33 72 -41 81 -8 9 -26 47 -40 85 -14 37 -37 87
-49 109 -13 23 -29 59 -36 81 -7 22 -28 67 -46 101 -19 33 -34 68 -34 77 0 8
-17 48 -39 89 -21 40 -44 91 -51 113 -7 22 -25 63 -41 90 -15 28 -34 73 -42
101 -8 27 -28 77 -45 110 -16 32 -33 75 -37 94 -4 19 -21 62 -38 95 -16 33
-38 88 -47 122 -10 33 -29 81 -43 105 -14 23 -31 66 -38 93 -7 28 -27 82 -45
120 -17 39 -37 93 -43 122 -6 29 -24 80 -40 115 -16 35 -34 88 -41 118 -7 30
-23 76 -36 101 -13 25 -35 88 -49 139 -14 51 -35 110 -46 132 -11 21 -27 73
-35 116 -9 42 -27 103 -40 135 -14 32 -34 97 -45 144 -11 48 -33 118 -48 157
-16 39 -34 100 -40 136 -7 35 -23 92 -36 126 -13 34 -33 110 -44 168 -12 59
-32 135 -45 169 -13 34 -31 104 -40 156 -10 52 -28 124 -42 160 -13 36 -33
122 -44 190 -11 69 -30 154 -41 190 -11 36 -29 120 -40 186 -11 66 -31 157
-44 203 -13 45 -31 142 -40 215 -9 72 -29 188 -45 257 -16 69 -34 170 -40 225
-6 55 -24 177 -40 270 -16 94 -36 244 -45 335 -9 91 -22 203 -30 250 -23 139
-43 333 -55 535 -5 105 -13 206 -15 225 -18 117 -47 649 -57 1030 -14 567 0
1228 37 1635 13 149 29 366 35 483 6 124 23 296 40 412 16 109 34 258 40 331
12 161 25 255 51 371 10 48 28 167 39 264 11 97 31 225 45 283 14 58 32 155
40 216 8 60 26 150 39 200 14 49 34 151 45 225 11 74 29 162 41 195 11 33 29
109 40 168 11 60 31 144 45 188 13 43 32 122 41 176 9 54 27 128 41 165 13 37
32 108 43 159 11 51 31 120 44 153 14 34 29 90 35 126 7 36 25 103 41 150 16
47 39 125 50 173 11 48 29 106 40 128 12 22 30 77 41 122 11 45 32 107 45 139
13 32 31 89 40 126 9 37 28 96 44 132 15 36 33 90 40 120 7 30 25 80 41 111
15 30 35 84 44 119 9 35 27 85 40 111 14 26 33 80 44 119 11 40 30 88 41 107
11 19 29 66 40 105 11 39 30 89 44 112 13 22 31 64 39 92 8 28 29 78 45 110
17 32 36 79 42 104 7 25 24 68 40 95 15 28 35 74 44 103 8 29 29 77 46 106 16
30 30 60 30 67 -1 13 44 108 130 279 20 41 43 93 50 115 7 22 24 56 36 75 13
19 32 61 43 93 11 32 29 70 40 85 10 15 31 56 45 91 14 36 32 72 40 80 8 9 30
50 50 91 19 41 42 86 50 100 8 14 27 50 42 80 68 139 98 197 115 221 9 14 26
45 35 70 10 24 32 65 50 92 18 26 36 58 40 70 3 12 16 36 28 52 22 29 60 96
133 235 19 36 41 72 48 80 7 8 27 42 44 75 52 97 110 198 126 215 7 8 20 27
27 41 14 28 65 107 135 215 24 35 43 67 43 70 0 3 17 31 39 62 21 32 50 77 65
102 37 63 108 168 243 364 26 38 59 86 73 106 14 20 48 69 75 109 28 40 68 99
90 131 38 55 88 122 233 313 34 45 80 107 103 137 22 30 59 81 82 112 23 31
57 78 76 105 19 26 67 84 105 129 60 69 213 256 321 394 130 165 597 684 852
947 134 138 253 263 263 276 11 13 97 98 192 188 95 90 263 249 373 355 221
211 333 313 505 454 63 52 194 165 291 250 182 159 224 194 367 302 46 35 103
79 127 98 212 169 500 388 620 470 36 25 87 61 115 80 27 19 69 47 92 62 24
15 70 48 103 72 141 105 259 185 545 368 30 20 75 48 100 62 25 15 72 45 105
67 33 22 73 47 89 57 16 9 52 32 80 51 28 18 71 45 96 59 25 13 54 33 65 43
11 10 43 27 70 39 28 12 59 30 70 40 11 10 42 28 68 39 26 11 62 31 80 45 18
13 53 33 79 44 26 11 62 32 80 45 18 13 47 29 65 36 17 7 47 24 65 37 18 14
52 34 76 44 24 11 57 30 75 42 18 13 54 33 82 46 27 13 57 30 66 38 8 8 43 25
76 39 34 13 78 36 98 49 20 14 53 30 73 37 20 6 57 24 82 40 25 16 65 35 89
44 23 8 56 24 72 36 16 11 57 32 91 45 34 13 78 35 98 49 19 13 54 31 77 39
22 8 59 26 80 40 21 14 63 33 93 42 30 9 73 27 95 39 22 13 67 34 100 46 33
12 71 30 85 39 14 10 53 27 87 38 34 11 81 32 105 46 24 14 71 34 105 44 33
11 75 29 92 41 17 12 59 31 93 42 35 12 77 29 93 39 17 10 64 28 105 40 41 12
93 33 115 45 22 13 69 31 105 40 36 9 83 27 105 40 23 13 70 31 105 40 36 9
83 27 105 40 22 12 74 33 115 45 41 12 95 33 120 45 25 13 82 30 126 38 45 9
104 27 131 41 28 13 87 34 133 46 46 12 104 32 129 44 25 13 73 29 106 36 33
7 90 25 127 40 36 16 104 36 150 45 45 10 112 28 148 41 36 12 110 34 165 47
55 14 125 34 155 45 30 11 93 27 140 35 47 9 116 27 153 41 38 14 107 33 155
41 48 9 123 27 167 41 44 14 125 32 180 40 55 8 145 28 200 44 55 16 136 34
180 40 44 7 130 25 190 40 61 15 170 35 243 44 73 9 181 27 239 41 57 14 162
32 231 40 70 9 170 24 223 35 96 20 254 40 474 60 66 6 187 22 270 35 173 27
217 31 495 45 112 6 274 17 360 26 85 8 200 19 255 24 329 32 1880 29 2205 -4
141 -15 392 -34 730 -55 91 -6 255 -24 365 -40 110 -16 270 -34 355 -41 85 -6
220 -24 300 -40 80 -16 204 -36 275 -44 72 -9 182 -26 245 -40 63 -14 169 -32
236 -41 66 -8 159 -26 206 -40 46 -13 131 -31 187 -40 116 -17 164 -27 236
-50 28 -8 104 -24 170 -35 66 -11 154 -31 195 -45 41 -14 117 -33 169 -41 52
-8 126 -26 165 -40 39 -14 105 -32 146 -40 41 -8 116 -28 165 -44 50 -17 124
-36 166 -44 42 -8 103 -26 136 -40 33 -14 94 -33 134 -42 41 -9 99 -28 129
-41 30 -13 89 -31 130 -40 41 -8 107 -28 146 -44 40 -16 104 -36 143 -44 39
-8 93 -26 119 -39 26 -13 75 -32 107 -41 33 -10 81 -28 106 -41 26 -13 78 -31
115 -40 38 -9 94 -29 124 -44 30 -15 87 -35 125 -44 39 -10 85 -26 103 -37 19
-10 64 -29 100 -40 37 -12 90 -34 117 -49 28 -15 66 -31 85 -35 19 -4 65 -22
101 -40 36 -18 93 -40 125 -50 32 -9 77 -27 99 -40 22 -13 64 -30 93 -39 29
-8 77 -28 105 -44 29 -17 70 -35 92 -42 22 -7 67 -28 101 -46 33 -19 68 -34
77 -34 8 0 46 -16 83 -36 37 -19 90 -44 117 -55 28 -11 62 -28 76 -38 15 -11
53 -28 86 -39 33 -10 82 -33 109 -51 28 -17 55 -31 61 -31 6 0 29 -10 50 -21
86 -47 212 -112 260 -135 28 -14 61 -31 75 -39 14 -8 62 -32 106 -54 45 -21
84 -43 88 -49 3 -5 32 -20 63 -33 32 -12 72 -33 88 -45 17 -12 52 -31 78 -42
26 -12 62 -31 80 -44 17 -12 56 -35 87 -51 79 -40 191 -105 210 -122 8 -8 33
-22 55 -32 22 -10 60 -31 85 -46 109 -69 158 -98 196 -116 23 -10 64 -35 91
-55 28 -20 54 -36 59 -36 5 0 25 -13 44 -29 19 -15 51 -36 70 -46 19 -10 87
-51 150 -93 63 -42 149 -97 190 -123 41 -27 95 -62 120 -79 25 -16 93 -63 153
-102 59 -40 131 -90 160 -111 28 -20 81 -58 117 -82 36 -25 85 -60 110 -79 25
-19 63 -47 85 -62 118 -82 448 -330 590 -444 24 -19 81 -64 127 -99 143 -110
219 -172 338 -276 130 -113 184 -159 357 -303 67 -56 124 -111 128 -121 3 -11
1 -29 -4 -40 -10 -18 -26 -19 -373 -23 l-363 -4 -124 -33 c-69 -18 -136 -41
-150 -50 -15 -10 -51 -31 -81 -46 -102 -51 -288 -241 -327 -332 -8 -20 -26
-53 -40 -75 -35 -57 -75 -248 -76 -368 -1 -128 34 -308 73 -372 16 -26 38 -67
48 -91 21 -48 91 -139 154 -200 45 -44 186 -147 201 -147 6 0 47 -18 91 -40
148 -72 125 -71 1896 -67 1742 4 1630 -1 1803 81 114 55 195 113 289 210 78
78 171 227 189 301 7 28 20 69 30 93 10 23 23 79 29 124 13 106 13 3043 0
3145 -11 86 -75 283 -107 330 -12 18 -30 47 -38 63 -58 112 -308 324 -408 346
-18 3 -66 21 -107 38 -75 31 -75 31 -260 31 -172 0 -189 -2 -240 -24 -30 -13
-81 -31 -112 -41 -120 -37 -315 -195 -406 -327 -50 -73 -55 -83 -102 -195 -52
-127 -60 -213 -60 -669 0 -299 -2 -348 -15 -359 -24 -20 -45 -5 -211 141 -83
74 -204 179 -269 234 -66 55 -173 147 -239 206 -67 58 -141 120 -166 137 -60
43 -93 69 -240 187 -68 55 -147 118 -174 139 -28 22 -78 61 -111 87 -52 42
-281 211 -355 262 -14 10 -52 38 -85 62 -33 25 -78 57 -100 73 -60 41 -194
138 -245 177 -25 19 -63 47 -85 62 -60 40 -290 190 -375 245 -41 26 -88 57
-105 68 -78 53 -197 130 -201 130 -3 0 -31 17 -62 39 -132 89 -153 102 -301
186 -29 17 -75 44 -101 62 -26 17 -65 39 -86 48 -21 9 -48 24 -59 34 -11 10
-38 28 -60 39 -22 11 -64 36 -94 56 -29 20 -59 36 -66 36 -6 0 -30 13 -53 29
-22 17 -66 44 -99 61 -32 17 -92 51 -133 75 -41 25 -95 54 -120 65 -64 30 -93
45 -195 100 -104 56 -228 121 -300 156 -27 13 -61 31 -75 39 -71 40 -264 135
-297 146 -21 6 -54 23 -73 35 -19 13 -57 31 -85 40 -27 9 -62 26 -78 36 -15
11 -55 30 -88 43 -34 14 -80 36 -104 49 -23 14 -64 33 -90 42 -27 9 -64 27
-84 40 -20 13 -61 32 -91 42 -31 11 -78 31 -105 45 -28 13 -73 32 -101 40 -29
8 -69 27 -90 41 -22 13 -61 30 -89 37 -27 6 -72 24 -100 39 -27 15 -75 35
-105 45 -30 9 -73 28 -95 40 -22 13 -67 31 -100 40 -33 10 -85 30 -115 45 -30
15 -82 35 -115 45 -32 9 -80 27 -105 40 -25 12 -79 32 -121 43 -42 12 -92 30
-110 41 -19 11 -71 29 -116 40 -45 11 -104 32 -132 46 -28 14 -81 32 -118 41
-37 8 -85 26 -107 39 -23 12 -83 32 -134 44 -51 11 -110 30 -132 41 -21 11
-77 29 -122 39 -46 11 -106 29 -133 41 -28 12 -88 31 -135 42 -47 11 -111 31
-143 44 -32 14 -99 33 -150 44 -51 11 -115 28 -143 39 -28 11 -89 27 -135 37
-46 9 -124 29 -174 45 -49 15 -128 34 -175 43 -47 8 -116 26 -153 40 -38 14
-110 33 -160 41 -51 9 -131 27 -178 40 -47 13 -142 33 -210 44 -68 11 -151 30
-184 41 -33 12 -119 30 -192 40 -72 11 -176 31 -230 45 -54 14 -156 32 -228
40 -71 8 -195 28 -275 44 -80 17 -192 35 -250 41 -58 6 -161 22 -230 35 -128
25 -225 36 -460 55 -74 6 -189 19 -255 30 -185 30 -272 39 -510 50 -228 11
-442 26 -507 36 -29 4 -38 10 -38 25 0 19 -27 19 -1315 19 -1298 0 -1315 0
-1315 -20z"/>
<path d="M23250 36390 c-25 -4 -63 -15 -85 -25 -22 -9 -66 -25 -98 -35 -117
-37 -297 -177 -392 -305 -71 -96 -141 -244 -154 -325 -9 -57 -52 -424 -66
-565 -3 -27 -12 -171 -20 -320 -9 -148 -27 -369 -40 -490 -13 -121 -29 -303
-35 -405 -18 -323 -16 -311 -36 -330 -26 -25 -176 -85 -249 -100 -33 -7 -96
-26 -139 -42 -44 -17 -116 -39 -162 -49 -45 -10 -100 -26 -121 -37 -21 -11
-65 -27 -98 -37 -33 -9 -82 -28 -109 -41 -27 -14 -79 -33 -116 -43 -36 -10
-89 -30 -117 -44 -28 -15 -82 -34 -119 -43 -38 -9 -83 -25 -101 -36 -17 -10
-63 -30 -102 -43 -39 -13 -84 -33 -99 -43 -15 -11 -49 -27 -77 -36 -27 -10
-77 -31 -109 -48 -33 -17 -84 -39 -113 -49 -30 -10 -66 -27 -81 -37 -15 -11
-52 -27 -82 -37 -30 -10 -107 -45 -170 -78 -63 -33 -133 -68 -155 -79 -22 -10
-56 -28 -75 -38 -19 -11 -64 -33 -99 -51 -36 -17 -79 -41 -95 -54 -17 -12 -47
-28 -66 -34 -19 -6 -52 -23 -72 -36 -66 -44 -102 -31 -234 84 -23 20 -89 77
-149 126 -59 50 -165 140 -235 200 -70 61 -158 135 -195 165 -38 30 -105 87
-151 125 -402 342 -456 388 -539 455 -37 30 -88 71 -111 90 -84 68 -139 104
-187 122 -26 10 -69 29 -95 42 -67 35 -156 48 -317 48 -175 0 -235 -11 -364
-68 -188 -82 -85 14 -1776 -1664 -330 -327 -859 -852 -1175 -1165 -794 -787
-808 -802 -866 -925 -14 -30 -37 -78 -50 -107 -35 -73 -47 -156 -47 -313 0
-161 14 -248 49 -315 14 -27 34 -71 43 -96 21 -53 61 -111 151 -217 36 -43
110 -131 165 -197 55 -66 136 -161 180 -211 83 -95 211 -245 362 -423 48 -57
156 -182 238 -276 158 -181 260 -304 288 -345 22 -32 21 -76 -2 -109 -11 -15
-31 -51 -46 -81 -14 -30 -48 -95 -75 -145 -27 -49 -65 -121 -85 -160 -20 -38
-64 -124 -100 -190 -35 -66 -64 -126 -64 -134 -1 -8 -22 -57 -47 -110 -25 -53
-63 -132 -84 -176 -21 -44 -42 -91 -46 -105 -3 -14 -21 -52 -39 -85 -19 -33
-39 -80 -45 -105 -6 -25 -22 -63 -35 -85 -12 -22 -31 -69 -40 -105 -10 -36
-30 -90 -45 -120 -15 -30 -35 -82 -45 -115 -9 -32 -27 -80 -40 -105 -12 -25
-33 -79 -45 -120 -12 -41 -30 -91 -40 -110 -10 -20 -28 -75 -39 -123 -11 -47
-32 -113 -46 -147 -14 -33 -30 -83 -36 -112 -17 -89 -91 -269 -117 -286 -18
-12 -82 -18 -260 -28 -130 -7 -273 -17 -317 -23 -164 -21 -403 -42 -603 -51
-238 -11 -276 -14 -547 -41 -379 -38 -448 -51 -561 -106 -115 -56 -192 -113
-284 -209 -68 -71 -152 -190 -165 -234 -4 -14 -24 -65 -44 -115 l-36 -90 0
-2540 0 -2540 36 -90 c20 -49 40 -101 44 -114 14 -45 98 -166 164 -235 59 -61
199 -176 215 -176 4 0 45 -19 92 -41 99 -47 144 -56 499 -93 279 -30 334 -34
592 -46 197 -9 436 -30 598 -51 44 -6 187 -16 317 -23 252 -14 279 -20 293
-68 4 -13 20 -53 36 -90 16 -36 35 -97 43 -135 8 -37 28 -103 45 -145 17 -42
38 -108 46 -147 8 -39 23 -88 34 -109 10 -20 29 -71 41 -112 12 -41 33 -95 45
-120 13 -25 31 -73 40 -105 10 -33 30 -85 45 -115 15 -30 35 -84 45 -120 9
-36 28 -83 40 -105 13 -22 30 -64 39 -94 9 -30 27 -73 41 -96 13 -23 34 -69
46 -101 12 -33 32 -75 44 -94 12 -19 28 -53 35 -75 6 -22 26 -65 42 -95 17
-30 39 -77 49 -105 10 -27 43 -97 73 -155 30 -58 71 -136 91 -175 20 -38 58
-110 85 -160 27 -49 61 -115 75 -145 15 -30 35 -66 46 -81 23 -33 24 -77 2
-109 -28 -42 -130 -164 -288 -345 -82 -94 -188 -216 -233 -271 -120 -142 -275
-323 -363 -423 -41 -47 -124 -144 -184 -216 -59 -71 -132 -157 -161 -190 -75
-86 -121 -152 -150 -215 -13 -30 -36 -75 -49 -100 -33 -63 -48 -161 -48 -320
0 -157 13 -239 53 -324 16 -34 35 -77 43 -96 45 -109 94 -158 3022 -3061 595
-590 635 -626 760 -677 33 -13 76 -33 96 -43 53 -27 156 -41 304 -40 152 0
252 14 316 47 26 13 69 32 95 42 48 18 104 54 188 122 23 19 74 60 111 90 83
67 137 113 539 455 46 39 113 95 151 125 37 30 125 105 195 165 70 61 176 151
235 200 59 50 126 106 149 126 134 115 168 128 234 84 20 -13 53 -30 72 -36
19 -7 48 -21 65 -33 28 -19 104 -60 215 -115 25 -12 59 -29 75 -38 119 -65
249 -128 300 -145 33 -11 72 -29 87 -40 15 -10 59 -30 97 -43 38 -13 89 -34
113 -48 24 -14 61 -30 83 -37 22 -7 60 -25 85 -40 25 -16 69 -35 99 -44 30 -9
70 -25 89 -36 19 -12 69 -30 111 -42 42 -11 98 -32 126 -45 27 -14 79 -34 115
-44 37 -10 89 -29 116 -43 27 -13 69 -29 94 -36 25 -6 74 -24 110 -40 36 -15
103 -36 148 -45 46 -9 114 -29 150 -45 37 -15 94 -33 127 -40 73 -15 223 -75
249 -100 13 -12 19 -36 22 -81 2 -35 9 -147 14 -249 6 -102 22 -284 35 -405
13 -121 31 -341 40 -490 15 -256 49 -621 80 -840 24 -174 112 -333 273 -492
41 -41 89 -81 106 -90 17 -9 45 -27 62 -40 17 -13 62 -34 100 -47 38 -14 94
-35 124 -48 l55 -23 2560 0 2560 0 90 36 c50 20 101 40 115 44 82 24 264 173
349 284 69 90 145 251 160 336 11 64 44 342 60 515 6 58 18 224 26 370 9 146
26 366 40 490 21 195 33 352 49 643 2 42 9 74 18 83 15 15 137 65 223 91 28 8
91 28 140 45 50 16 132 41 184 54 51 14 110 33 130 43 20 10 71 28 114 40 43
12 100 32 126 45 26 14 75 32 108 40 33 9 80 27 104 40 24 13 76 34 115 45 40
12 91 32 115 45 24 13 67 29 94 35 28 7 67 24 89 38 21 14 64 34 94 44 31 11
72 29 91 40 20 12 66 32 104 45 37 13 80 31 95 42 15 10 43 24 62 31 38 15
201 90 265 123 22 12 69 37 105 56 75 41 233 123 305 159 28 14 62 34 77 44
59 42 95 24 306 -159 69 -59 139 -118 156 -132 17 -13 65 -54 107 -90 41 -36
97 -83 124 -105 27 -22 89 -74 138 -115 49 -41 103 -86 120 -100 18 -14 89
-74 158 -135 69 -60 181 -155 249 -210 68 -55 161 -131 206 -170 116 -98 171
-136 228 -157 26 -10 70 -30 96 -43 65 -33 159 -46 320 -46 173 0 223 10 351
64 173 74 199 95 664 555 1544 1527 3031 3013 3084 3083 70 91 146 256 163
353 16 89 13 318 -6 404 -8 40 -24 88 -35 105 -11 18 -28 55 -38 82 -25 66
-104 174 -253 346 -41 48 -118 137 -170 200 -52 62 -145 169 -205 238 -61 69
-144 166 -185 216 -105 125 -104 124 -241 281 -367 419 -378 436 -330 503 11
15 31 51 45 81 15 30 49 96 76 145 27 50 63 119 80 153 16 35 39 76 49 91 11
15 28 47 37 72 10 24 28 60 41 79 12 19 31 60 41 90 11 31 33 80 50 110 16 30
36 73 43 95 6 22 27 67 44 100 18 33 36 74 40 90 3 17 19 50 35 75 15 25 35
68 43 96 8 27 28 77 44 110 17 32 35 81 42 108 6 26 25 74 41 106 16 32 35 80
41 106 7 27 24 74 40 105 15 30 35 83 43 116 9 33 27 84 40 114 14 30 34 94
46 142 11 48 29 106 40 127 11 22 29 77 40 122 28 119 89 267 119 286 19 13
68 18 231 23 192 7 345 19 665 54 72 7 171 16 220 19 347 22 446 30 650 51
357 39 400 47 499 94 47 22 88 41 91 41 15 0 158 116 211 171 87 91 148 191
202 326 l47 118 0 2540 0 2540 -31 75 c-17 41 -37 93 -44 115 -7 22 -23 54
-35 70 -12 17 -30 45 -39 63 -43 84 -248 266 -346 307 -25 10 -64 29 -86 42
-47 27 -185 49 -509 82 -179 19 -291 27 -605 46 -52 4 -153 13 -225 20 -318
35 -473 47 -665 54 -164 5 -212 10 -231 23 -28 18 -98 186 -119 283 -7 33 -24
87 -37 120 -14 33 -36 101 -48 151 -13 50 -32 109 -43 131 -11 21 -28 68 -37
103 -9 35 -29 89 -44 119 -16 31 -33 78 -40 105 -6 26 -25 74 -41 106 -16 32
-35 80 -41 106 -7 27 -24 74 -39 104 -15 30 -35 80 -44 110 -9 30 -27 70 -40
90 -12 19 -29 53 -36 75 -6 22 -27 67 -44 100 -18 33 -41 85 -51 115 -10 30
-29 71 -41 90 -13 19 -33 62 -44 95 -11 33 -31 76 -44 95 -12 19 -28 52 -35
72 -7 20 -24 54 -38 75 -14 21 -39 65 -55 98 -16 33 -51 101 -78 150 -27 50
-61 115 -76 145 -14 30 -34 66 -45 81 -48 67 -37 84 330 503 137 157 136 156
241 281 41 50 124 147 185 216 60 69 153 176 205 238 52 63 129 152 170 200
149 172 228 280 253 346 10 28 27 64 37 80 27 44 40 102 51 227 9 111 0 272
-21 343 -23 81 -95 222 -149 292 -56 73 -504 523 -2141 2148 -1324 1315 -1328
1319 -1442 1403 -67 49 -218 118 -303 139 -75 18 -336 20 -425 4 -36 -7 -86
-23 -112 -37 -26 -13 -69 -32 -95 -42 -56 -21 -111 -60 -227 -157 -45 -38
-138 -115 -206 -170 -68 -55 -180 -149 -249 -210 -69 -60 -140 -121 -158 -135
-17 -14 -71 -59 -120 -100 -49 -41 -111 -93 -137 -115 -27 -22 -86 -71 -131
-110 -250 -214 -392 -334 -433 -362 -46 -33 -98 -43 -118 -23 -11 11 -107 63
-239 130 -44 23 -116 61 -160 85 -44 25 -100 54 -125 65 -25 11 -81 38 -125
59 -44 22 -96 45 -115 52 -19 7 -47 21 -62 31 -15 10 -52 27 -82 38 -30 10
-74 30 -98 43 -24 14 -68 33 -98 42 -30 10 -75 30 -100 45 -25 16 -67 34 -95
41 -27 6 -70 22 -94 35 -24 13 -80 35 -124 49 -45 15 -95 34 -112 45 -16 10
-59 26 -94 35 -36 9 -86 27 -112 41 -26 13 -83 33 -126 45 -43 12 -94 30 -114
40 -20 10 -73 27 -119 39 -46 12 -110 32 -142 46 -32 13 -89 31 -126 39 -66
14 -194 59 -262 93 -43 21 -45 31 -60 317 -5 116 -21 309 -35 430 -13 121 -31
339 -39 485 -9 146 -18 292 -21 325 -12 128 -66 581 -71 600 -19 65 -105 230
-155 296 -85 112 -268 261 -349 284 -14 4 -65 24 -115 44 l-90 36 -2530 1
c-1391 1 -2550 -2 -2575 -6z m4034 -1831 c29 -14 46 -55 46 -116 0 -23 9 -121
20 -216 18 -164 25 -254 50 -657 6 -96 20 -249 30 -340 11 -91 26 -255 35
-364 18 -230 24 -260 65 -347 16 -35 30 -69 30 -74 0 -17 108 -175 148 -217
57 -60 162 -143 212 -168 25 -13 55 -31 68 -40 12 -10 46 -23 75 -30 28 -6 89
-25 134 -40 45 -16 124 -36 175 -45 51 -9 127 -27 168 -40 41 -13 116 -33 165
-44 50 -10 115 -29 145 -41 30 -12 96 -31 145 -41 50 -11 113 -31 142 -44 29
-13 87 -31 130 -41 43 -9 98 -27 123 -39 25 -13 74 -31 110 -40 36 -10 88 -30
115 -45 28 -15 77 -33 110 -40 33 -8 89 -28 125 -46 36 -18 85 -37 109 -44 24
-6 62 -23 84 -37 22 -13 63 -32 91 -40 59 -17 135 -52 476 -217 64 -31 119
-56 124 -56 4 0 19 -9 33 -20 13 -10 50 -29 81 -40 31 -12 64 -28 72 -35 8 -8
47 -30 85 -50 39 -20 108 -58 155 -85 47 -27 110 -62 140 -77 30 -16 75 -43
99 -61 24 -18 48 -32 53 -32 5 0 35 -18 65 -40 31 -22 60 -40 66 -40 5 0 28
-13 51 -28 80 -54 238 -123 315 -138 127 -25 254 -28 381 -10 95 14 132 24
215 63 55 25 119 60 143 77 118 86 230 178 501 411 139 119 395 335 445 375
17 13 81 67 141 120 61 53 143 122 182 154 40 32 92 76 115 97 46 43 78 56
101 42 18 -9 385 -371 1395 -1374 577 -574 722 -723 722 -743 0 -15 -17 -44
-42 -74 -24 -27 -83 -98 -133 -157 -49 -60 -126 -149 -170 -199 -149 -169
-210 -241 -275 -320 -36 -43 -117 -138 -180 -210 -343 -392 -417 -486 -479
-611 -60 -123 -57 -114 -76 -237 -22 -146 -17 -264 17 -413 15 -69 98 -228
213 -410 47 -75 96 -155 120 -200 12 -22 36 -62 54 -89 17 -28 31 -55 31 -61
0 -7 13 -30 30 -53 16 -22 43 -69 60 -104 17 -35 53 -103 80 -153 52 -96 61
-113 96 -190 13 -27 29 -61 38 -75 24 -41 114 -233 121 -260 4 -14 18 -44 32
-68 13 -24 33 -68 44 -99 10 -31 30 -75 43 -97 13 -23 32 -68 41 -101 9 -33
27 -78 40 -100 12 -22 32 -72 44 -111 12 -40 32 -91 45 -115 14 -24 32 -74 40
-112 9 -37 27 -90 41 -117 14 -27 32 -80 41 -117 8 -38 28 -97 44 -133 16 -36
34 -94 40 -130 6 -36 25 -99 41 -140 15 -41 35 -109 44 -150 8 -41 27 -109 40
-150 14 -41 33 -122 44 -180 10 -58 26 -123 35 -145 10 -22 28 -78 41 -125 61
-218 281 -462 483 -537 34 -12 80 -32 101 -42 49 -25 128 -38 316 -51 83 -6
254 -21 380 -35 127 -13 325 -29 440 -35 236 -12 393 -24 570 -45 66 -7 155
-17 198 -21 52 -4 85 -12 100 -24 l22 -18 0 -1477 0 -1477 -22 -18 c-15 -12
-48 -20 -100 -24 -43 -4 -132 -14 -198 -21 -177 -21 -334 -33 -570 -45 -115
-6 -313 -22 -440 -35 -126 -14 -297 -29 -380 -35 -195 -13 -264 -25 -332 -56
-31 -14 -74 -32 -95 -40 -105 -37 -307 -208 -368 -312 -9 -15 -31 -51 -48 -80
-17 -29 -39 -79 -48 -110 -8 -31 -29 -95 -45 -142 -16 -47 -36 -127 -44 -178
-9 -52 -25 -117 -36 -146 -10 -29 -28 -95 -40 -147 -11 -52 -31 -122 -45 -157
-14 -34 -33 -103 -44 -152 -10 -49 -30 -110 -43 -137 -14 -26 -32 -81 -41
-122 -9 -40 -28 -95 -41 -121 -13 -26 -32 -79 -41 -116 -9 -38 -27 -87 -39
-109 -13 -22 -31 -67 -40 -100 -10 -33 -30 -85 -45 -115 -15 -30 -35 -81 -44
-114 -10 -32 -30 -82 -46 -110 -15 -28 -33 -69 -40 -91 -7 -22 -23 -58 -36
-80 -13 -23 -30 -61 -39 -85 -16 -45 -95 -214 -122 -260 -8 -14 -28 -54 -44
-90 -16 -36 -36 -76 -45 -90 -8 -14 -31 -56 -50 -95 -19 -38 -57 -108 -84
-155 -27 -47 -61 -109 -75 -139 -14 -30 -39 -72 -54 -95 -15 -23 -34 -54 -43
-71 -21 -43 -74 -130 -119 -197 -22 -31 -39 -61 -39 -66 0 -5 -13 -27 -28 -48
-41 -57 -127 -232 -139 -284 -21 -84 -36 -242 -30 -314 14 -156 34 -237 87
-341 64 -126 140 -222 480 -611 63 -72 144 -167 180 -210 65 -79 126 -151 275
-320 44 -50 121 -139 170 -199 50 -59 109 -130 133 -157 25 -30 42 -59 42 -74
0 -20 -145 -169 -722 -743 -1098 -1089 -1378 -1365 -1394 -1374 -25 -14 -59 0
-101 40 -22 21 -73 65 -114 98 -41 33 -123 102 -184 155 -60 53 -124 107 -141
120 -50 40 -306 256 -445 375 -271 233 -383 325 -501 411 -24 17 -86 52 -138
77 -151 73 -338 93 -557 61 -92 -13 -123 -23 -213 -67 -58 -28 -124 -64 -146
-79 -23 -15 -45 -28 -50 -28 -7 0 -49 -26 -177 -109 -52 -34 -131 -78 -242
-135 -33 -17 -74 -41 -90 -52 -17 -12 -50 -30 -75 -42 -25 -11 -60 -32 -79
-46 -19 -14 -40 -26 -45 -26 -6 0 -87 -37 -181 -84 -246 -121 -357 -174 -385
-181 -14 -4 -47 -20 -75 -35 -27 -16 -73 -35 -102 -43 -29 -9 -72 -27 -96 -41
-24 -15 -68 -33 -98 -42 -30 -9 -75 -27 -101 -40 -25 -13 -78 -32 -116 -43
-39 -11 -90 -30 -114 -44 -24 -13 -73 -32 -110 -41 -38 -9 -93 -27 -125 -41
-31 -14 -85 -32 -121 -40 -35 -8 -94 -28 -131 -44 -36 -16 -97 -34 -136 -41
-38 -7 -102 -25 -141 -41 -39 -15 -100 -33 -135 -39 -35 -6 -104 -24 -154 -40
-49 -16 -133 -36 -185 -45 -52 -9 -119 -25 -150 -37 -30 -11 -89 -29 -130 -40
-67 -18 -116 -42 -230 -113 -115 -73 -253 -240 -312 -380 -61 -142 -66 -164
-83 -380 -9 -115 -25 -284 -35 -375 -11 -91 -24 -244 -30 -340 -22 -368 -31
-489 -46 -615 -8 -71 -19 -177 -23 -234 -7 -96 -10 -106 -35 -128 l-27 -23
-1469 0 c-1077 0 -1476 3 -1494 11 -29 14 -46 55 -46 116 0 23 -9 121 -20 216
-18 164 -25 254 -50 657 -6 96 -20 249 -30 340 -11 91 -24 230 -30 310 -17
229 -29 307 -56 367 -14 31 -32 74 -40 95 -37 105 -197 295 -304 363 -114 71
-163 95 -230 113 -41 11 -100 29 -130 40 -31 12 -98 28 -150 37 -52 9 -135 29
-185 45 -49 16 -119 34 -155 40 -35 7 -92 23 -125 36 -33 14 -102 34 -152 44
-51 11 -111 29 -132 40 -22 11 -75 29 -118 41 -43 12 -99 32 -126 45 -26 14
-82 32 -125 40 -42 9 -99 29 -127 44 -27 16 -70 34 -95 40 -24 7 -69 24 -100
39 -30 15 -84 36 -120 45 -36 10 -87 30 -115 46 -27 15 -68 33 -90 40 -22 7
-62 25 -90 40 -27 16 -72 35 -100 43 -27 8 -79 30 -115 50 -36 19 -76 38 -90
42 -14 5 -41 19 -61 32 -20 13 -60 33 -89 44 -30 11 -64 29 -78 39 -13 11 -49
29 -79 40 -31 12 -70 31 -87 43 -30 22 -100 60 -206 113 -63 31 -152 82 -225
129 -27 18 -66 41 -85 50 -19 9 -57 32 -85 50 -81 52 -164 98 -265 148 -150
73 -337 93 -557 61 -92 -13 -124 -23 -213 -66 -58 -28 -118 -62 -135 -75 -159
-126 -371 -304 -579 -483 -67 -59 -132 -113 -144 -122 -31 -21 -209 -171 -361
-303 -70 -60 -160 -137 -201 -170 -40 -33 -86 -72 -102 -87 -32 -31 -69 -44
-91 -31 -8 4 -430 420 -937 923 -507 503 -980 972 -1051 1041 -150 146 -152
151 -86 228 23 27 101 117 172 201 72 84 182 212 245 285 63 73 158 183 210
245 52 62 147 173 210 245 272 312 346 410 407 535 57 118 76 213 76 380 0
168 -20 265 -78 387 -26 54 -58 112 -71 130 -13 17 -28 43 -33 56 -6 14 -29
54 -53 89 -24 36 -52 80 -63 99 -11 18 -39 65 -62 104 -24 38 -57 99 -74 135
-17 36 -37 72 -45 81 -8 9 -31 47 -51 85 -20 38 -55 105 -79 149 -24 44 -54
105 -68 135 -14 30 -32 66 -39 80 -58 105 -132 260 -147 305 -7 22 -25 63 -40
90 -15 28 -33 68 -40 90 -7 22 -27 67 -45 100 -18 33 -36 76 -40 95 -4 19 -20
61 -36 92 -15 31 -36 83 -45 115 -9 32 -29 83 -44 113 -15 30 -37 90 -49 133
-12 43 -30 95 -40 116 -11 20 -27 66 -36 102 -9 35 -29 96 -45 134 -15 39 -35
104 -43 145 -9 41 -25 98 -37 125 -12 28 -30 91 -41 140 -11 50 -33 131 -49
180 -16 50 -34 124 -40 165 -6 41 -24 113 -40 160 -16 47 -34 105 -40 130 -10
40 -51 118 -116 222 -65 103 -251 254 -362 295 -34 13 -80 32 -101 42 -49 25
-129 38 -321 51 -85 6 -234 19 -330 30 -188 20 -355 33 -655 50 -104 6 -264
20 -355 30 -91 10 -200 22 -243 25 -51 5 -85 13 -100 25 l-22 18 0 1477 0
1477 22 18 c15 12 48 20 100 24 43 4 132 14 198 21 177 21 334 33 570 45 116
6 314 22 440 35 127 14 298 29 380 35 188 13 267 26 316 51 21 10 67 29 101
42 113 41 297 192 363 296 64 103 105 181 115 221 6 25 24 83 40 130 16 47 35
126 44 175 8 50 26 122 40 162 13 40 32 109 41 155 10 46 30 115 45 153 15 39
33 99 39 135 7 36 25 94 40 130 16 36 34 90 41 120 7 30 25 84 40 120 16 36
36 94 45 129 9 36 29 90 44 120 16 31 36 83 45 116 10 33 26 75 37 93 11 19
29 64 40 100 12 37 32 86 46 110 13 24 33 68 44 99 10 31 30 75 43 97 13 23
29 59 36 81 13 40 83 188 121 255 11 19 29 55 40 80 11 25 27 59 36 75 9 17
35 66 58 110 101 193 115 219 129 234 8 9 28 45 45 81 39 80 86 161 129 222
17 26 32 49 32 53 0 3 20 35 45 72 25 36 45 70 45 76 0 5 11 24 24 41 13 18
47 80 76 140 63 132 83 223 83 396 0 172 -19 264 -82 392 -61 123 -124 205
-401 523 -63 72 -158 183 -210 245 -52 62 -147 172 -210 245 -63 73 -173 201
-245 285 -71 84 -149 174 -173 201 -64 75 -61 84 66 207 59 58 531 526 1050
1041 519 515 954 940 967 944 35 12 11 30 309 -225 98 -84 195 -166 216 -183
74 -60 245 -202 365 -305 296 -253 514 -434 587 -486 52 -37 198 -109 251
-123 21 -5 90 -15 153 -22 117 -13 277 -4 381 23 61 15 347 163 393 203 8 7
38 24 65 38 28 14 73 40 102 58 102 67 142 90 189 111 27 11 63 31 79 44 17
12 50 30 75 40 25 10 59 28 75 40 17 12 56 32 87 44 31 11 67 29 80 40 14 10
48 28 78 39 29 11 69 31 89 44 20 13 52 29 71 37 19 7 62 28 95 46 33 18 80
38 105 44 25 7 68 24 95 40 28 15 68 33 90 40 22 7 67 27 100 45 33 18 83 38
110 44 28 7 68 23 91 36 23 13 72 33 110 44 38 10 89 30 114 44 25 13 77 32
117 40 40 9 94 27 120 41 26 13 80 32 118 41 39 10 95 29 125 42 30 13 93 32
140 42 47 11 110 29 140 41 30 12 96 31 145 41 50 11 124 31 165 44 41 13 117
31 168 40 51 9 123 27 160 40 37 13 96 31 132 40 36 9 76 24 90 34 14 10 46
29 70 41 50 25 156 108 212 167 59 62 128 172 170 273 53 128 55 138 73 366 9
109 25 276 35 369 10 94 24 247 30 340 6 94 15 242 21 330 5 88 19 236 29 328
11 93 20 188 20 211 0 58 16 101 43 114 32 16 2947 16 2981 1z"/>
<path d="M43396 32414 c-79 -16 -132 -32 -157 -48 -20 -14 -54 -32 -74 -40
-96 -41 -260 -193 -332 -309 -57 -91 -63 -106 -99 -215 -44 -135 -59 -246 -46
-351 12 -95 75 -298 109 -348 13 -19 31 -54 40 -77 9 -22 28 -59 43 -81 15
-22 39 -65 54 -95 15 -30 49 -93 76 -140 27 -47 62 -110 77 -140 16 -30 41
-73 56 -95 15 -22 27 -44 27 -50 0 -6 16 -38 36 -71 20 -32 45 -82 55 -111 11
-28 28 -62 38 -75 11 -13 31 -52 45 -88 14 -35 33 -71 41 -80 8 -9 26 -44 39
-78 14 -34 33 -74 44 -89 11 -16 31 -56 45 -90 14 -35 34 -75 45 -90 10 -16
29 -54 41 -87 12 -32 32 -77 45 -100 13 -22 29 -59 36 -81 7 -22 28 -67 46
-101 19 -33 34 -68 34 -77 0 -8 17 -48 39 -89 21 -40 44 -91 51 -113 7 -22 25
-62 41 -90 15 -27 35 -75 43 -105 9 -30 29 -80 45 -110 16 -30 32 -71 36 -90
4 -19 20 -60 35 -91 16 -31 38 -87 50 -125 11 -38 31 -87 44 -109 13 -22 29
-60 35 -85 7 -25 25 -74 41 -110 16 -36 37 -94 46 -130 9 -36 29 -92 44 -126
15 -33 33 -85 40 -115 7 -30 27 -88 45 -129 18 -41 38 -100 45 -130 7 -30 23
-75 35 -100 12 -25 32 -87 43 -137 12 -51 32 -118 46 -150 13 -32 31 -93 41
-136 9 -43 28 -103 41 -134 14 -31 32 -90 41 -132 8 -42 26 -106 39 -142 13
-36 33 -113 45 -170 11 -57 31 -134 44 -171 13 -37 31 -105 40 -152 9 -48 27
-119 41 -159 14 -39 33 -126 44 -192 11 -66 30 -156 43 -200 14 -44 32 -130
42 -190 9 -60 25 -136 35 -169 23 -78 36 -147 50 -266 6 -52 24 -153 40 -225
15 -71 33 -175 40 -230 6 -55 24 -176 40 -270 17 -93 37 -244 45 -335 9 -91
22 -203 30 -250 22 -128 43 -333 55 -545 6 -104 13 -206 15 -225 5 -37 16
-183 41 -570 10 -162 15 -420 16 -830 1 -605 -10 -963 -36 -1215 -8 -77 -20
-230 -26 -340 -15 -281 -28 -431 -50 -570 -19 -120 -30 -224 -50 -449 -6 -66
-22 -171 -35 -235 -14 -64 -34 -194 -45 -290 -11 -96 -31 -222 -45 -280 -14
-58 -32 -155 -40 -216 -8 -60 -26 -151 -40 -200 -13 -50 -33 -151 -44 -225
-11 -74 -29 -162 -41 -195 -11 -33 -29 -110 -40 -171 -11 -60 -30 -144 -44
-185 -13 -41 -32 -119 -41 -174 -9 -55 -29 -136 -44 -180 -16 -44 -34 -111
-40 -150 -7 -38 -23 -98 -37 -131 -13 -34 -33 -104 -44 -155 -12 -52 -31 -121
-44 -154 -13 -33 -31 -95 -40 -138 -9 -43 -29 -108 -45 -145 -16 -37 -34 -94
-41 -127 -7 -33 -25 -89 -40 -125 -16 -36 -36 -98 -45 -138 -9 -41 -29 -101
-45 -135 -15 -34 -33 -86 -39 -115 -6 -29 -22 -74 -36 -101 -13 -27 -33 -80
-44 -118 -10 -38 -30 -92 -44 -119 -14 -28 -33 -79 -42 -114 -9 -35 -29 -89
-44 -119 -16 -31 -33 -78 -40 -106 -7 -27 -26 -77 -43 -109 -16 -32 -37 -82
-45 -110 -8 -28 -26 -70 -40 -94 -13 -24 -31 -66 -40 -95 -8 -29 -28 -77 -44
-107 -16 -31 -36 -80 -45 -110 -9 -29 -28 -76 -44 -104 -15 -28 -34 -69 -40
-91 -7 -22 -24 -58 -38 -79 -13 -21 -33 -64 -43 -95 -11 -31 -30 -72 -43 -91
-12 -19 -29 -53 -36 -75 -6 -22 -26 -65 -42 -95 -17 -30 -39 -78 -49 -107 -10
-30 -27 -66 -38 -82 -11 -15 -29 -52 -41 -81 -12 -29 -29 -65 -39 -79 -10 -14
-35 -60 -55 -101 -20 -41 -43 -86 -51 -100 -8 -14 -25 -47 -39 -75 -13 -27
-44 -88 -69 -135 -25 -47 -62 -116 -82 -155 -19 -38 -58 -108 -85 -155 -27
-47 -64 -112 -81 -145 -17 -33 -40 -71 -51 -84 -10 -14 -28 -45 -39 -70 -11
-25 -30 -59 -43 -75 -13 -17 -32 -51 -43 -76 -11 -25 -36 -68 -54 -97 -19 -28
-52 -81 -74 -117 -66 -109 -119 -193 -142 -228 -12 -18 -34 -53 -49 -78 -15
-25 -43 -70 -63 -101 -20 -31 -44 -69 -54 -85 -9 -16 -34 -54 -55 -85 -20 -32
-50 -78 -67 -103 -16 -25 -51 -76 -77 -113 -27 -38 -62 -88 -79 -113 -17 -25
-63 -92 -102 -149 -40 -57 -88 -127 -107 -157 -29 -44 -156 -216 -269 -363
-14 -18 -42 -55 -61 -81 -114 -154 -157 -210 -240 -313 -36 -44 -78 -96 -95
-117 -16 -21 -75 -93 -130 -160 -55 -67 -111 -137 -125 -155 -14 -17 -79 -94
-145 -170 -300 -345 -484 -548 -702 -772 -129 -134 -244 -254 -254 -268 -11
-13 -140 -138 -287 -277 -245 -231 -365 -345 -461 -438 -56 -55 -286 -258
-386 -340 -49 -41 -155 -131 -235 -201 -192 -166 -213 -184 -563 -452 -56 -43
-135 -104 -176 -135 -127 -97 -138 -105 -213 -163 -40 -30 -98 -72 -128 -92
-30 -21 -75 -53 -100 -72 -25 -19 -103 -74 -173 -122 -71 -48 -148 -101 -171
-118 -128 -91 -338 -231 -443 -295 -31 -19 -86 -54 -121 -78 -36 -24 -72 -46
-81 -50 -9 -3 -44 -24 -78 -46 -94 -62 -175 -112 -203 -126 -14 -7 -34 -21
-45 -31 -24 -22 -137 -87 -220 -128 -33 -16 -75 -41 -94 -55 -19 -14 -40 -26
-47 -26 -7 0 -36 -16 -65 -36 -30 -20 -76 -47 -104 -60 -27 -13 -88 -46 -135
-73 -47 -28 -112 -64 -145 -82 -33 -17 -72 -40 -87 -50 -15 -11 -46 -26 -69
-34 -24 -9 -64 -28 -89 -44 -25 -16 -62 -34 -82 -40 -20 -7 -54 -24 -75 -38
-21 -14 -64 -36 -95 -49 -32 -12 -71 -32 -87 -43 -16 -12 -48 -28 -69 -35 -22
-8 -58 -26 -79 -40 -21 -14 -67 -37 -101 -50 -34 -13 -74 -33 -89 -44 -16 -10
-46 -25 -68 -32 -22 -7 -64 -26 -94 -42 -30 -17 -77 -37 -105 -45 -28 -8 -73
-27 -101 -43 -27 -15 -68 -33 -90 -40 -22 -7 -67 -27 -100 -45 -33 -18 -74
-36 -91 -40 -18 -3 -52 -19 -76 -34 -24 -15 -75 -38 -113 -50 -39 -13 -84 -31
-100 -41 -17 -10 -63 -28 -104 -39 -40 -11 -92 -31 -115 -45 -23 -13 -70 -32
-106 -41 -35 -9 -89 -29 -119 -44 -31 -16 -78 -33 -105 -40 -26 -6 -74 -24
-105 -40 -31 -15 -85 -36 -121 -46 -36 -9 -86 -28 -111 -41 -25 -12 -77 -30
-115 -39 -38 -9 -93 -27 -122 -40 -30 -14 -92 -34 -138 -45 -46 -11 -102 -29
-124 -40 -22 -11 -79 -30 -127 -41 -48 -11 -105 -30 -127 -41 -23 -12 -89 -33
-147 -49 -58 -15 -123 -35 -143 -43 -21 -9 -78 -23 -127 -31 -49 -9 -124 -28
-167 -44 -42 -15 -108 -34 -146 -41 -38 -7 -101 -25 -140 -40 -39 -15 -118
-35 -176 -45 -58 -10 -141 -28 -185 -42 -44 -13 -123 -30 -175 -39 -52 -8
-142 -28 -200 -44 -58 -16 -139 -34 -180 -41 -41 -6 -125 -23 -185 -39 -61
-16 -173 -35 -249 -44 -75 -9 -183 -27 -239 -41 -56 -13 -145 -29 -197 -35
-52 -7 -153 -22 -225 -35 -177 -32 -251 -42 -451 -60 -95 -8 -241 -26 -325
-40 -101 -17 -246 -31 -419 -40 -287 -16 -290 -16 -585 -45 -274 -27 -1055
-41 -1665 -30 -368 7 -523 14 -740 34 -151 14 -367 30 -480 36 -234 12 -234
12 -510 50 -113 16 -272 34 -355 40 -82 6 -215 24 -295 40 -80 16 -208 37
-285 45 -77 9 -169 23 -205 31 -103 24 -157 34 -280 50 -63 8 -153 26 -200 40
-47 13 -132 31 -190 40 -58 8 -154 28 -215 44 -60 16 -155 36 -210 44 -55 8
-129 26 -165 39 -36 14 -103 32 -150 41 -47 10 -128 30 -180 46 -52 16 -129
34 -170 41 -41 6 -104 22 -140 35 -36 13 -105 32 -155 44 -49 11 -113 32 -142
45 -29 13 -89 31 -134 40 -46 10 -114 30 -153 45 -39 16 -100 34 -136 41 -36
6 -89 23 -119 36 -30 13 -91 33 -135 44 -44 11 -98 31 -120 44 -23 13 -74 30
-115 39 -40 9 -95 28 -121 41 -26 13 -79 32 -116 41 -38 9 -94 29 -124 44 -30
15 -85 34 -122 44 -37 9 -94 29 -125 45 -32 16 -78 35 -103 41 -25 7 -67 24
-95 40 -27 15 -66 31 -85 35 -19 4 -64 21 -100 39 -36 18 -90 41 -120 51 -30
10 -77 30 -105 45 -27 15 -72 33 -100 40 -27 6 -72 24 -100 40 -27 15 -61 31
-75 35 -27 7 -177 77 -273 126 -32 17 -83 39 -113 49 -30 11 -68 29 -84 40
-16 11 -54 29 -85 40 -31 11 -69 29 -85 40 -16 11 -55 30 -86 40 -31 11 -63
25 -71 32 -14 11 -137 76 -238 124 -27 14 -61 31 -75 39 -14 8 -59 32 -100 53
-41 22 -115 61 -165 87 -49 26 -119 62 -155 80 -36 18 -80 45 -99 59 -19 14
-40 26 -46 26 -7 0 -31 14 -55 31 -24 18 -66 42 -94 56 -51 24 -134 73 -191
112 -16 11 -54 32 -83 46 -29 14 -75 41 -103 60 -28 19 -56 35 -62 35 -6 0
-37 18 -68 40 -32 22 -61 40 -66 40 -4 0 -27 15 -49 33 -41 31 -81 58 -194
127 -94 58 -148 93 -202 132 -28 21 -56 38 -61 38 -5 0 -34 17 -65 38 -32 21
-75 51 -97 65 -58 39 -131 91 -200 142 -33 25 -80 58 -105 75 -25 16 -61 40
-80 54 -98 70 -176 126 -241 171 -39 28 -117 85 -172 128 -56 43 -133 101
-170 130 -38 29 -103 80 -145 115 -43 35 -113 90 -157 123 -156 116 -179 136
-359 294 -101 88 -238 205 -307 261 -107 87 -124 105 -124 129 0 49 21 53 274
47 473 -10 716 50 931 230 263 222 371 544 301 897 -42 210 -161 391 -350 535
-35 26 -84 57 -110 68 -25 10 -73 32 -106 48 -116 56 -100 55 -1820 55 -1797
0 -1685 5 -1861 -80 -53 -26 -129 -71 -168 -100 -76 -56 -192 -179 -220 -232
-9 -18 -27 -48 -40 -67 -12 -19 -43 -92 -67 -163 l-44 -128 -3 -1545 c-2 -970
1 -1575 7 -1626 12 -95 74 -296 106 -339 12 -16 30 -46 40 -65 56 -111 308
-324 409 -346 17 -4 65 -21 106 -38 75 -31 75 -31 260 -31 181 0 186 1 250 29
36 16 88 35 115 43 28 8 64 25 80 37 17 12 50 34 75 48 59 34 178 153 237 237
26 36 59 96 74 132 15 36 34 80 43 98 33 62 39 138 45 560 5 383 8 425 23 434
21 13 57 -11 167 -111 42 -38 146 -128 231 -201 85 -73 198 -170 250 -215 84
-73 196 -164 380 -309 30 -24 109 -86 175 -139 276 -218 450 -350 541 -412 21
-15 66 -47 99 -71 33 -25 85 -62 115 -83 30 -22 82 -58 115 -81 33 -23 86 -61
118 -84 84 -61 233 -162 387 -262 74 -48 146 -96 160 -106 14 -11 39 -26 55
-35 26 -14 112 -70 342 -221 28 -19 66 -42 85 -52 37 -20 131 -76 198 -118 25
-15 66 -38 91 -49 26 -12 50 -27 54 -33 4 -7 32 -25 63 -40 51 -25 105 -56
203 -116 90 -56 181 -108 244 -140 63 -31 178 -93 260 -138 17 -9 55 -28 85
-42 92 -44 201 -103 219 -119 9 -8 42 -24 73 -36 32 -12 60 -25 63 -30 7 -11
258 -134 295 -145 14 -4 41 -18 60 -31 19 -13 57 -31 85 -41 27 -9 66 -27 85
-39 19 -13 61 -32 93 -43 32 -11 71 -30 87 -41 16 -11 55 -30 87 -41 32 -11
74 -30 93 -43 19 -12 53 -29 75 -36 22 -7 70 -28 106 -46 37 -18 89 -38 115
-45 27 -6 70 -24 96 -40 25 -15 66 -33 89 -39 24 -7 73 -27 109 -45 36 -18 86
-38 110 -45 24 -7 74 -27 110 -45 36 -17 79 -35 95 -39 17 -4 56 -20 87 -37
32 -16 88 -36 124 -45 37 -8 92 -28 123 -44 31 -15 81 -34 111 -40 30 -7 77
-24 105 -38 27 -13 80 -33 118 -43 38 -11 90 -30 115 -43 26 -13 78 -31 116
-40 37 -9 90 -28 117 -41 27 -14 86 -34 131 -44 46 -11 104 -29 129 -40 25
-11 86 -30 135 -41 49 -11 116 -31 149 -45 33 -13 99 -33 148 -44 48 -12 105
-30 126 -41 22 -11 80 -29 130 -40 50 -11 114 -29 143 -40 29 -11 103 -29 163
-39 61 -11 141 -31 178 -45 37 -14 102 -32 145 -40 42 -8 111 -27 152 -41 41
-14 122 -34 180 -45 58 -10 143 -30 190 -43 47 -14 131 -30 185 -37 55 -6 145
-24 200 -40 55 -16 145 -36 200 -45 55 -8 142 -26 194 -40 51 -13 157 -32 235
-41 77 -8 202 -28 276 -44 74 -16 185 -34 245 -40 61 -6 164 -22 230 -35 123
-24 252 -40 410 -50 96 -7 317 -33 338 -40 36 -13 279 -36 477 -45 218 -10
420 -24 508 -36 33 -4 42 -9 42 -25 0 -19 20 -19 1300 -19 1273 0 1300 0 1300
19 0 15 9 21 38 25 39 6 356 29 632 46 91 5 239 21 330 34 91 14 246 32 344
40 99 9 256 29 350 46 94 16 221 34 281 40 61 6 175 24 255 40 80 17 199 37
265 45 66 9 164 27 218 41 54 13 149 31 210 39 62 8 154 26 205 40 51 14 145
34 207 45 63 11 150 31 192 44 43 14 122 32 176 41 54 9 131 28 170 41 40 14
114 31 165 40 52 8 128 27 170 43 43 15 109 34 147 41 39 7 105 25 147 41 43
16 117 36 165 45 48 9 113 27 144 40 31 13 97 32 147 43 50 11 112 30 139 44
26 13 75 29 108 36 33 7 92 26 130 42 39 15 100 35 138 43 37 9 89 27 116 40
26 14 79 32 116 41 37 8 97 28 134 44 36 16 91 34 121 41 30 7 87 28 125 46
39 18 88 35 110 39 22 4 63 18 92 32 28 13 84 35 124 48 39 14 87 34 105 44
18 11 66 30 106 41 40 12 87 30 103 40 17 10 62 28 100 41 39 12 93 34 120 50
28 15 70 33 95 39 25 7 68 24 95 40 28 15 68 33 90 40 22 7 67 26 100 43 33
16 84 38 113 48 29 10 65 27 80 37 15 11 52 27 82 37 30 10 71 29 90 41 19 13
62 33 95 44 33 11 76 31 95 44 19 12 53 29 75 36 22 7 60 25 85 41 25 16 66
35 90 44 24 9 65 28 90 44 25 16 63 34 85 41 22 7 58 25 80 40 22 15 57 33 77
39 20 7 54 24 75 38 21 14 65 37 97 49 33 13 66 30 75 38 9 8 45 29 81 46 89
43 305 160 460 250 47 27 114 66 150 85 72 40 207 120 323 192 29 17 74 44
101 58 26 15 66 40 89 56 22 16 44 29 48 29 5 0 38 19 73 42 35 24 94 61 130
83 37 22 81 50 99 62 17 12 62 40 99 62 37 23 70 46 73 51 4 6 27 22 53 35 26
14 58 33 72 44 14 10 45 30 70 45 25 15 74 49 110 76 36 27 83 59 105 71 22
12 49 29 60 39 19 17 81 61 190 136 28 19 77 55 110 79 33 25 83 60 110 80
111 78 185 132 240 175 32 25 79 61 105 80 154 114 217 162 275 210 24 19 69
55 100 80 31 25 74 59 94 75 21 17 73 57 116 90 43 33 133 107 200 165 67 58
166 142 221 187 106 87 449 393 716 638 326 300 972 956 1284 1305 244 272
519 590 594 685 25 31 61 77 80 100 19 24 58 71 85 105 28 34 80 96 116 138
61 72 134 164 169 216 8 12 42 57 75 100 103 134 144 189 180 243 19 28 39 55
45 58 6 3 28 32 50 63 22 31 61 84 85 117 25 33 61 83 79 110 263 381 297 431
331 485 17 25 40 59 53 76 34 43 88 124 111 166 12 20 39 63 61 94 22 32 40
61 40 66 0 5 17 35 38 66 22 31 58 85 80 119 23 33 42 65 42 69 0 5 19 38 43
74 84 125 115 175 132 210 10 19 29 49 41 66 13 17 24 35 24 41 0 5 16 36 36
69 21 32 48 81 62 109 13 27 33 61 44 74 10 14 27 44 38 68 11 24 30 58 42 76
13 17 31 50 41 72 10 22 28 53 41 70 12 16 36 57 53 90 17 33 51 101 77 150
26 50 56 108 67 130 11 22 28 56 39 75 10 19 37 72 59 116 21 45 44 84 49 88
6 3 20 32 32 63 11 31 30 69 41 85 11 15 32 56 46 91 14 34 34 74 44 89 11 15
26 46 34 70 8 24 30 75 49 113 68 138 125 260 131 285 4 14 20 45 35 70 15 25
33 63 40 85 7 22 25 63 41 91 16 28 38 80 49 115 11 35 28 78 38 94 10 17 29
61 41 98 13 37 34 87 47 111 13 24 31 67 40 97 9 29 29 75 44 103 16 28 34 71
40 96 7 24 25 69 40 100 15 30 35 83 44 117 8 35 27 84 40 111 13 27 32 77 41
112 9 35 29 89 44 119 16 31 34 81 41 111 7 30 25 80 41 111 15 31 35 87 44
125 9 38 27 93 40 122 14 30 34 92 45 138 11 46 29 102 39 123 11 21 30 79 42
127 12 49 32 109 44 134 13 25 31 81 40 125 10 44 30 115 46 157 16 43 34 108
40 145 6 38 24 103 40 145 16 43 36 114 45 159 9 45 29 116 44 158 15 42 33
112 40 156 7 44 23 115 36 157 14 43 35 133 49 200 13 68 32 148 43 179 11 32
28 101 37 155 9 55 27 143 41 197 14 54 34 157 45 230 11 73 31 173 44 223 14
51 31 145 40 210 8 66 28 187 45 269 16 83 34 204 40 270 6 66 22 170 35 230
24 112 39 236 51 405 3 52 19 190 34 305 38 273 38 282 50 540 10 218 25 420
36 483 3 23 10 32 24 32 20 0 20 16 20 1150 0 1131 0 1150 -19 1150 -24 0 -27
18 -41 250 -35 573 -42 657 -80 950 -10 80 -24 201 -30 270 -6 69 -24 202 -40
295 -16 94 -34 224 -40 290 -6 66 -25 181 -41 255 -17 74 -37 189 -45 254 -8
65 -28 178 -44 250 -16 72 -34 168 -40 214 -6 46 -24 129 -40 185 -16 56 -36
147 -45 202 -8 55 -26 138 -40 185 -13 47 -31 127 -40 179 -9 52 -29 131 -44
176 -16 45 -34 115 -41 156 -7 40 -25 112 -41 159 -16 47 -36 122 -43 166 -8
45 -28 122 -45 170 -17 49 -37 119 -45 156 -9 37 -26 94 -40 125 -13 32 -31
94 -41 138 -10 44 -28 103 -40 132 -13 28 -31 87 -40 130 -10 43 -30 107 -45
143 -14 36 -34 96 -44 134 -9 37 -28 90 -42 117 -13 27 -31 79 -40 115 -8 37
-26 89 -40 116 -14 27 -33 82 -43 121 -10 40 -29 95 -43 122 -14 28 -31 75
-38 105 -7 30 -27 84 -45 120 -18 36 -36 81 -40 100 -4 19 -22 64 -40 100 -18
36 -40 92 -50 125 -9 33 -27 78 -40 100 -13 22 -31 67 -40 100 -9 33 -27 78
-40 100 -12 22 -30 65 -40 95 -9 30 -30 78 -45 105 -15 28 -33 68 -40 90 -7
22 -27 68 -46 102 -19 34 -34 68 -34 76 0 9 -16 46 -36 84 -20 37 -45 92 -55
122 -11 30 -29 71 -40 90 -12 20 -30 60 -40 90 -11 30 -32 75 -48 100 -16 25
-34 63 -40 83 -7 20 -23 53 -37 73 -13 20 -35 63 -49 96 -13 32 -33 72 -44 87
-11 16 -29 54 -41 85 -11 30 -29 66 -40 79 -10 14 -28 48 -39 78 -11 29 -31
69 -44 89 -13 20 -31 56 -41 80 -9 25 -27 59 -39 75 -12 17 -36 58 -53 91 -17
33 -52 98 -79 145 -26 47 -63 113 -81 148 -18 35 -38 69 -44 77 -6 7 -26 43
-46 81 -56 110 -95 176 -151 255 -78 113 -210 231 -300 271 -26 12 -64 32 -84
45 -48 32 -266 73 -379 72 -47 0 -139 -12 -204 -25z" fill="#0066ff"/>
</g>
</svg>
